<svg viewBox="0 0 1320 200" xmlns="http://www.w3.org/2000/svg" xmlns:xlink="http://www.w3.org/1999/xlink"><path fill="rgba(47, 73, 94, 1)" d="M 0 0 C 201.29999999999998 0 469.70000000000005 110 671 110 L 671 110 L 671 0 L 0 0 Z" stroke-width="0"></path> <path fill="rgba(47, 73, 94, 1)" d="M 670 110 C 679.3 110 691.7 110 701 110 L 701 110 L 701 0 L 670 0 Z" stroke-width="0"></path> <path fill="rgba(47, 73, 94, 1)" d="M 700 110 C 709.3 110 721.7 110 731 110 L 731 110 L 731 0 L 700 0 Z" stroke-width="0"></path><path fill="rgba(47, 73, 94, 1)" d="M 730 110 C 739.3 110 751.7 110 761 110 L 761 110 L 761 0 L 730 0 Z" stroke-width="0"></path><path fill="rgba(47, 73, 94, 1)" d="M 760 110 C 769.3 110 781.7 110 791 110 L 791 110 L 791 0 L 760 0 Z" stroke-width="0"></path><path fill="rgba(47, 73, 94, 1)" d="M 790 110 C 949 110 1161 0 1320 0 L 1320 0 L 1320 0 L 790 0 Z" stroke-width="0"></path></svg>